Coordinates
version=1
nRows=30
nColumns=38
inDegrees=no

Units are S.I. units (second, meters, Newtons, ...)
If the header above contains a line with 'inDegrees', this indicates whether rotational values are in degrees (yes) or radians (no).

endheader
time	pelvis_tilt	pelvis_list	pelvis_rotation	pelvis_tx	pelvis_ty	pelvis_tz	hip_flexion_r	hip_adduction_r	hip_rotation_r	knee_angle_r	ankle_angle_r	subtalar_angle_r	mtp_angle_r	hip_flexion_l	hip_adduction_l	hip_rotation_l	knee_angle_l	ankle_angle_l	subtalar_angle_l	mtp_angle_l	lumbar_extension	lumbar_bending	lumbar_rotation	arm_flex_r	arm_add_r	arm_rot_r	elbow_flex_r	pro_sup_r	wrist_flex_r	wrist_dev_r	arm_flex_l	arm_add_l	arm_rot_l	elbow_flex_l	pro_sup_l	wrist_flex_l	wrist_dev_l
30	2.5197	1.52612	-0.710858	0.537596	0.195001	0.921415	0.210373	-0.0730892	-0.190596	0.522612	0.162541	0	0	0.217984	-0.0943548	-0.244742	0.541755	0.216433	0	0	-0.406762	0.107171	-0.0719434	0.268391	-0.300139	0.525298	0.364649	1.15398	0	0	0.142186	-0.314628	0.484779	0.748124	1.08252	0	0
30.01	2.47967	1.5289	-0.67217	0.537269	0.19608	0.923057	0.202757	-0.072433	-0.191911	0.503057	0.154695	0	0	0.209462	-0.0920901	-0.25159	0.521462	0.208381	0	0	-0.396274	0.10434	-0.0725677	0.259981	-0.301759	0.525351	0.370801	1.15546	0	0	0.137917	-0.315269	0.487051	0.748725	1.08405	0	0
30.02	2.4312	1.53157	-0.624757	0.536913	0.197191	0.924649	0.194758	-0.0716495	-0.193452	0.482903	0.146983	0	0	0.201079	-0.0895925	-0.257644	0.50108	0.200212	0	0	-0.385678	0.1017	-0.0731468	0.251337	-0.303396	0.525053	0.377054	1.15666	0	0	0.133886	-0.315783	0.489593	0.749111	1.08573	0	0
30.03	2.3843	1.53388	-0.57769	0.536418	0.198439	0.926189	0.185551	-0.0709063	-0.195951	0.462288	0.1397	0	0	0.192373	-0.0866671	-0.262183	0.480738	0.192062	0	0	-0.37515	0.0995125	-0.0750067	0.242407	-0.304826	0.524122	0.383448	1.15731	0	0	0.129331	-0.316469	0.491882	0.749745	1.08774	0	0
30.04	2.33846	1.53596	-0.531791	0.535936	0.199704	0.927648	0.176062	-0.0696336	-0.196707	0.441364	0.131961	0	0	0.183434	-0.0836039	-0.266347	0.460588	0.184052	0	0	-0.36506	0.0972684	-0.0767977	0.233677	-0.306195	0.523401	0.389758	1.15782	0	0	0.124781	-0.317252	0.493777	0.75065	1.08928	0	0
30.05	2.27161	1.53801	-0.465804	0.535593	0.200906	0.928966	0.167711	-0.0678902	-0.196304	0.420869	0.12387	0	0	0.175388	-0.080944	-0.270832	0.441259	0.176264	0	0	-0.354923	0.0949203	-0.077604	0.225188	-0.307587	0.522881	0.396213	1.15854	0	0	0.1205	-0.318084	0.495678	0.751801	1.09029	0	0
30.06	2.18236	1.53997	-0.377667	0.535295	0.202044	0.930138	0.160158	-0.0660447	-0.195476	0.400764	0.115827	0	0	0.168295	-0.0783677	-0.274962	0.422751	0.168674	0	0	-0.344535	0.0925974	-0.0780233	0.216877	-0.308999	0.522216	0.402567	1.15905	0	0	0.116601	-0.31891	0.498318	0.75222	1.0915	0	0
30.07	2.07946	1.54164	-0.275864	0.535003	0.203177	0.931209	0.152574	-0.0641362	-0.194786	0.380472	0.107809	0	0	0.161597	-0.0757819	-0.278699	0.404849	0.161358	0	0	-0.334183	0.0903745	-0.0786934	0.209011	-0.310308	0.521891	0.408571	1.15891	0	0	0.112544	-0.319775	0.500422	0.752718	1.09267	0	0
30.08	1.98927	1.54283	-0.186615	0.534713	0.204331	0.932274	0.143746	-0.0620061	-0.193905	0.359143	0.0990711	0	0	0.153906	-0.07303	-0.281826	0.386297	0.153555	0	0	-0.32463	0.0881094	-0.0791756	0.200961	-0.312047	0.522653	0.415533	1.15763	0	0	0.10891	-0.3207	0.502629	0.75325	1.09377	0	0
30.09	1.88583	1.5438	-0.0841761	0.534461	0.20546	0.933212	0.135699	-0.0600453	-0.193272	0.338903	0.0908809	0	0	0.146793	-0.0704374	-0.285119	0.368602	0.146462	0	0	-0.315065	0.0857015	-0.079459	0.193297	-0.313601	0.524698	0.421668	1.15521	0	0	0.105588	-0.321509	0.50453	0.753408	1.09485	0	0
30.1	1.78662	1.54454	0.0137308	0.53425	0.206562	0.934083	0.127731	-0.0581709	-0.191864	0.31926	0.0827321	0	0	0.139412	-0.067809	-0.288496	0.351044	0.139541	0	0	-0.306056	0.0830898	-0.0795134	0.186243	-0.314795	0.527402	0.426766	1.15198	0	0	0.102581	-0.322225	0.506208	0.753037	1.09613	0	0
30.11	1.70767	1.54514	0.0910417	0.534063	0.207668	0.934935	0.119202	-0.0564498	-0.190135	0.299842	0.0744697	0	0	0.131098	-0.0650438	-0.2918	0.333138	0.132518	0	0	-0.297934	0.0803293	-0.079309	0.179867	-0.316307	0.532899	0.431414	1.14744	0	0	0.0997351	-0.322738	0.507325	0.752227	1.09765	0	0
30.12	1.64209	1.54557	0.154896	0.533886	0.208786	0.935751	0.110508	-0.0548753	-0.188897	0.28107	0.0665418	0	0	0.122192	-0.0622682	-0.294938	0.31501	0.12564	0	0	-0.290246	0.0776952	-0.0793895	0.174502	-0.319246	0.549215	0.436907	1.12884	0	0	0.0965336	-0.322674	0.506043	0.750712	1.10308	0	0
30.13	1.59914	1.54584	0.195965	0.53374	0.209935	0.936581	0.101148	-0.0533107	-0.18762	0.262336	0.0587146	0	0	0.112366	-0.059531	-0.297547	0.296332	0.118484	0	0	-0.283339	0.0751333	-0.0790456	0.169488	-0.320156	0.555064	0.439358	1.12888	0	0	0.0938741	-0.322558	0.505656	0.74873	1.10512	0	0
30.14	1.58064	1.54609	0.212549	0.533613	0.21109	0.937421	0.0908447	-0.0516482	-0.186171	0.243071	0.0505908	0	0	0.101443	-0.0566222	-0.298949	0.27663	0.110667	0	0	-0.277245	0.0726926	-0.0786076	0.16489	-0.32085	0.560576	0.441459	1.13016	0	0	0.0916119	-0.322285	0.505316	0.746067	1.10617	0	0
30.15	1.55368	1.54601	0.237682	0.533507	0.212218	0.938138	0.0810504	-0.0498049	-0.184764	0.224247	0.0427572	0	0	0.0913165	-0.0541433	-0.300365	0.257963	0.103507	0	0	-0.271084	0.0706175	-0.0784972	0.160946	-0.321172	0.56603	0.442897	1.13191	0	0	0.0891509	-0.322031	0.504584	0.743336	1.10653	0	0
30.16	1.52511	1.54573	0.264562	0.533402	0.213334	0.938772	0.0710335	-0.0477099	-0.183236	0.204697	0.0345607	0	0	0.0814512	-0.0517692	-0.30127	0.239468	0.096389	0	0	-0.264842	0.0688469	-0.0787838	0.157476	-0.321249	0.571878	0.443916	1.13398	0	0	0.0865603	-0.321656	0.503449	0.740363	1.10602	0	0
30.17	1.49805	1.54538	0.290029	0.533303	0.214449	0.939351	0.0607931	-0.0456008	-0.181716	0.18497	0.0266616	0	0	0.0714037	-0.0492617	-0.30117	0.220531	0.0890724	0	0	-0.258566	0.0672349	-0.0791451	0.154136	-0.321295	0.577942	0.444934	1.13568	0	0	0.0841095	-0.321124	0.502308	0.73701	1.10467	0	0
30.18	1.47148	1.54511	0.315035	0.533241	0.21558	0.939876	0.0506832	-0.0437099	-0.180195	0.165808	0.0192414	0	0	0.061237	-0.0466018	-0.300252	0.201384	0.0816121	0	0	-0.252248	0.0655202	-0.0794826	0.150798	-0.321212	0.583165	0.446014	1.13677	0	0	0.0818932	-0.320753	0.501921	0.733421	1.10253	0	0
30.19	1.44636	1.54483	0.338564	0.533201	0.216722	0.940329	0.0406157	-0.0417227	-0.177696	0.146616	0.0115406	0	0	0.0509808	-0.0439303	-0.298508	0.182119	0.0739925	0	0	-0.246008	0.063807	-0.0798381	0.147388	-0.320838	0.587239	0.447207	1.13802	0	0	0.0797619	-0.320537	0.502023	0.729779	1.09963	0	0
30.2	1.4158	1.54454	0.36751	0.533178	0.217837	0.940682	0.0312154	-0.0397913	-0.174645	0.127871	0.00344984	0	0	0.0409758	-0.0412637	-0.296349	0.163021	0.0664061	0	0	-0.239649	0.0620075	-0.0800905	0.143879	-0.320299	0.590649	0.44856	1.13938	0	0	0.0779536	-0.320424	0.502865	0.725915	1.09596	0	0
30.21	1.35806	1.5438	0.423733	0.533188	0.2189	0.940862	0.0241359	-0.0379992	-0.172295	0.11168	-0.00346297	0	0	0.0331843	-0.0392431	-0.295786	0.146759	0.0606915	0	0	-0.232444	0.0602932	-0.0804889	0.14044	-0.319301	0.592907	0.449495	1.14021	0	0	0.0760946	-0.320454	0.504035	0.722346	1.09133	0	0
30.22	1.36721	1.54422	0.413262	0.53312	0.220076	0.941228	0.012634	-0.0361881	-0.166278	0.0916236	-0.0132234	0	0	0.0195557	-0.0351835	-0.287904	0.122393	0.0492718	0	0	-0.227441	0.058393	-0.0814424	0.137206	-0.319054	0.597588	0.452178	1.13852	0	0	0.0740016	-0.319317	0.500823	0.717161	1.10405	0	0
30.23	1.33962	1.54398	0.43949	0.533119	0.221193	0.941398	0.00433699	-0.0346676	-0.162307	0.0756854	-0.0202197	0	0	0.00916569	-0.032252	-0.28263	0.102501	0.0407516	0	0	-0.221268	0.0566308	-0.0822047	0.13395	-0.318146	0.59965	0.453917	1.13807	0	0	0.0723684	-0.319279	0.502029	0.71318	1.10273	0	0
30.24	1.3206	1.54351	0.45715	0.533138	0.222315	0.941505	-0.00367542	-0.0328625	-0.158435	0.0605393	-0.0268444	0	0	-0.00121968	-0.0297922	-0.276424	0.0829259	0.03228	0	0	-0.215234	0.0552163	-0.0826566	0.130621	-0.317399	0.601104	0.455971	1.13705	0	0	0.0711897	-0.319265	0.50423	0.709035	1.10146	0	0
30.25	1.31256	1.54293	0.463759	0.533159	0.223433	0.941561	-0.0112977	-0.0309407	-0.154432	0.0466822	-0.0329166	0	0	-0.0119694	-0.0276019	-0.269663	0.0631731	0.0235869	0	0	-0.209421	0.0540703	-0.0829273	0.127333	-0.316563	0.601585	0.45799	1.13606	0	0	0.0702128	-0.319072	0.506775	0.704778	1.1003	0	0
30.26	1.31067	1.54239	0.464332	0.533167	0.224528	0.941574	-0.0186411	-0.029099	-0.150071	0.0337718	-0.0386539	0	0	-0.0229256	-0.0255448	-0.262472	0.0433605	0.0147145	0	0	-0.203984	0.0530765	-0.0834109	0.12431	-0.315585	0.601726	0.460009	1.13565	0	0	0.0693363	-0.318787	0.509303	0.700524	1.09941	0	0
30.27	1.31113	1.54178	0.462789	0.533173	0.225575	0.94155	-0.0258082	-0.0272789	-0.145444	0.0212274	-0.0441996	0	0	-0.0334567	-0.0238731	-0.255362	0.024475	0.00632232	0	0	-0.198829	0.052278	-0.0841949	0.121651	-0.314501	0.601894	0.461954	1.1355	0	0	0.0687045	-0.318495	0.511987	0.696255	1.09876	0	0
30.28	1.31362	1.54102	0.459494	0.53317	0.226577	0.941492	-0.032643	-0.0253572	-0.141349	0.00935592	-0.0492246	0	0	-0.042872	-0.0227937	-0.249501	0.00792039	-0.000580933	0	0	-0.193711	0.0517135	-0.0851804	0.119214	-0.313312	0.602168	0.463648	1.13536	0	0	0.0683678	-0.318149	0.514939	0.691988	1.09824	0	0
30.29	1.30478	1.54003	0.467869	0.53316	0.22752	0.941359	-0.0372238	-0.0237444	-0.139538	0.00124062	-0.0519262	0	0	-0.0498663	-0.0223639	-0.247189	0	-0.00470262	0	0	-0.188387	0.0512961	-0.0867486	0.117383	-0.311354	0.600918	0.463983	1.13856	0	0	0.0677254	-0.31752	0.515891	0.688225	1.10043	0	0
